<svg width="278" height="286" viewBox="0 0 278 286" fill="none" xmlns="http://www.w3.org/2000/svg">
<g opacity="0.400065">
<path fill-rule="evenodd" clip-rule="evenodd" d="M21.2338 154.335C26.5617 135.754 46.1598 125.072 65.0059 130.476C83.852 135.88 94.8113 155.325 89.4834 173.905C84.1554 192.486 64.5574 203.168 45.7113 197.764C26.8652 192.36 15.9059 172.916 21.2338 154.335Z" fill="#231F20"/>
<path fill-rule="evenodd" clip-rule="evenodd" d="M42.5676 82.0829L80.4617 243.792L198.292 126.736L42.5676 82.0829Z" fill="#C5CEBD"/>
<path fill-rule="evenodd" clip-rule="evenodd" d="M199.78 126.503L42.133 81.2987L79.8858 247.129L199.78 126.503ZM196.894 127.259L80.7516 244.109L44.1803 83.4687L196.894 127.259Z" fill="#231F20"/>
<path fill-rule="evenodd" clip-rule="evenodd" d="M65.3902 128.715C46.2787 123.235 26.4654 133.855 21.1375 152.436C15.8096 171.017 26.9841 190.523 46.0956 196.003C65.2072 201.483 85.0204 190.863 90.3484 172.282C95.6763 153.701 84.5018 134.195 65.3902 128.715ZM46.5044 194.578C28.2026 189.33 17.5016 170.65 22.6038 152.856C27.706 135.063 46.6797 124.892 64.9815 130.14C83.2832 135.388 93.9843 154.068 88.8821 171.861C83.7799 189.655 64.8062 199.825 46.5044 194.578Z" fill="#231F20"/>
<path d="M212.65 264.721L211.325 265.455L65.3356 2.083L66.6602 1.34878L212.65 264.721Z" fill="#231F20"/>
<path fill-rule="evenodd" clip-rule="evenodd" d="M152.203 215.177C148.751 214.187 145.213 215.967 144.3 219.153C143.386 222.338 145.444 225.723 148.895 226.712C152.345 227.702 155.883 225.921 156.796 222.736C157.709 219.551 155.653 216.166 152.203 215.177ZM149.3 225.3C146.693 224.553 145.14 221.997 145.829 219.591C146.519 217.186 149.191 215.842 151.798 216.589C154.403 217.336 155.956 219.892 155.266 222.297C154.577 224.703 151.905 226.047 149.3 225.3Z" fill="#231F20"/>
<path fill-rule="evenodd" clip-rule="evenodd" d="M123.494 104.636L158.313 167.676L199.434 126.412L123.494 104.636ZM126.586 107.101L196.549 127.163L158.664 165.179L126.586 107.101Z" fill="#231F20"/>
<path d="M243.292 181.023L226.567 222.048L225.136 221.475L241.251 181.946L202.934 169.883L233.014 138.012L203.18 103.233L204.353 102.285L235.057 138.078L205.696 169.187L243.292 181.023Z" fill="#231F20"/>
<path fill-rule="evenodd" clip-rule="evenodd" d="M149.552 68.3998C151.988 59.9057 160.633 54.9323 168.861 57.2917C177.091 59.6516 181.787 68.4504 179.351 76.9445C176.915 85.4386 168.27 90.412 160.04 88.0521C151.812 85.6927 147.116 76.8939 149.552 68.3998Z" fill="#231F20"/>
</g>
</svg>
